<?xml version="1.0" encoding="UTF-8" standalone="no"?>
<!DOCTYPE svg PUBLIC "-//W3C//DTD SVG 1.1//EN"
 "http://www.w3.org/Graphics/SVG/1.1/DTD/svg11.dtd">
<!-- Generated by graphviz version 10.0.1 (20240210.2158)
 -->
<!-- Pages: 1 -->
<svg width="605pt" height="503pt"
 viewBox="0.00 0.00 605.22 502.61" xmlns="http://www.w3.org/2000/svg" xmlns:xlink="http://www.w3.org/1999/xlink">
<g id="graph0" class="graph" transform="scale(1 1) rotate(0) translate(4 498.61)">
<polygon fill="white" stroke="none" points="-4,4 -4,-498.61 601.22,-498.61 601.22,4 -4,4"/>
<!-- A -->
<g id="node1" class="node">
<title>A</title>
<ellipse fill="none" stroke="black" cx="404.47" cy="-476.61" rx="73.52" ry="18"/>
<text text-anchor="middle" x="404.47" y="-471.19" font-family="Times New Roman,serif" font-size="14.00">Start Application</text>
</g>
<!-- B -->
<g id="node2" class="node">
<title>B</title>
<ellipse fill="none" stroke="black" cx="404.47" cy="-388.86" rx="154.36" ry="18"/>
<text text-anchor="middle" x="404.47" y="-383.44" font-family="Times New Roman,serif" font-size="14.00">Enter Current Number of Registrations</text>
</g>
<!-- A&#45;&gt;B -->
<g id="edge1" class="edge">
<title>A&#45;&gt;B</title>
<path fill="none" stroke="black" d="M404.47,-458.26C404.47,-446.87 404.47,-431.7 404.47,-418.54"/>
<polygon fill="black" stroke="black" points="407.97,-418.7 404.47,-408.7 400.97,-418.7 407.97,-418.7"/>
<text text-anchor="middle" x="439.35" y="-427.31" font-family="Times New Roman,serif" font-size="14.00">Launch GUI</text>
</g>
<!-- C -->
<g id="node3" class="node">
<title>C</title>
<ellipse fill="none" stroke="black" cx="314.47" cy="-301.11" rx="151.86" ry="18"/>
<text text-anchor="middle" x="314.47" y="-295.69" font-family="Times New Roman,serif" font-size="14.00">Enter Days Left in Registration Period</text>
</g>
<!-- B&#45;&gt;C -->
<g id="edge2" class="edge">
<title>B&#45;&gt;C</title>
<path fill="none" stroke="black" d="M386.26,-370.51C373.21,-358.07 355.43,-341.13 340.83,-327.22"/>
<polygon fill="black" stroke="black" points="343.41,-324.85 333.75,-320.48 338.58,-329.91 343.41,-324.85"/>
<text text-anchor="middle" x="397.72" y="-339.56" font-family="Times New Roman,serif" font-size="14.00">Input Data</text>
</g>
<!-- D -->
<g id="node4" class="node">
<title>D</title>
<ellipse fill="none" stroke="black" cx="314.47" cy="-213.36" rx="74.52" ry="18"/>
<text text-anchor="middle" x="314.47" y="-207.94" font-family="Times New Roman,serif" font-size="14.00">Click &quot;Calculate&quot;</text>
</g>
<!-- C&#45;&gt;D -->
<g id="edge3" class="edge">
<title>C&#45;&gt;D</title>
<path fill="none" stroke="black" d="M314.47,-282.76C314.47,-271.37 314.47,-256.2 314.47,-243.04"/>
<polygon fill="black" stroke="black" points="317.97,-243.2 314.47,-233.2 310.97,-243.2 317.97,-243.2"/>
<text text-anchor="middle" x="372.97" y="-251.81" font-family="Times New Roman,serif" font-size="14.00">Complete Data Entry</text>
</g>
<!-- E -->
<g id="node5" class="node">
<title>E</title>
<ellipse fill="none" stroke="black" cx="136.47" cy="-115.68" rx="136.47" ry="27.93"/>
<text text-anchor="middle" x="136.47" y="-118.13" font-family="Times New Roman,serif" font-size="14.00">Display Estimated Registrations</text>
<text text-anchor="middle" x="136.47" y="-102.38" font-family="Times New Roman,serif" font-size="14.00">and Upper/Lower Bounds</text>
</g>
<!-- D&#45;&gt;E -->
<g id="edge4" class="edge">
<title>D&#45;&gt;E</title>
<path fill="none" stroke="black" d="M285.08,-196.56C260.42,-183.3 224.45,-163.97 194.08,-147.65"/>
<polygon fill="black" stroke="black" points="195.82,-144.61 185.35,-142.96 192.5,-150.77 195.82,-144.61"/>
<text text-anchor="middle" x="276.72" y="-164.06" font-family="Times New Roman,serif" font-size="14.00">Valid Data</text>
</g>
<!-- F -->
<g id="node6" class="node">
<title>F</title>
<ellipse fill="none" stroke="black" cx="378.47" cy="-115.68" rx="87.68" ry="27.93"/>
<text text-anchor="middle" x="378.47" y="-118.13" font-family="Times New Roman,serif" font-size="14.00">Error: Invalid Input</text>
<text text-anchor="middle" x="378.47" y="-102.38" font-family="Times New Roman,serif" font-size="14.00">Prompt to Re&#45;enter</text>
</g>
<!-- D&#45;&gt;F -->
<g id="edge5" class="edge">
<title>D&#45;&gt;F</title>
<path fill="none" stroke="black" d="M325.91,-195.26C333.82,-183.44 344.62,-167.28 354.38,-152.69"/>
<polygon fill="black" stroke="black" points="357.11,-154.91 359.76,-144.65 351.29,-151.02 357.11,-154.91"/>
<text text-anchor="middle" x="381.85" y="-164.06" font-family="Times New Roman,serif" font-size="14.00">Invalid Data</text>
</g>
<!-- H -->
<g id="node8" class="node">
<title>H</title>
<ellipse fill="none" stroke="black" cx="136.47" cy="-18" rx="104.96" ry="18"/>
<text text-anchor="middle" x="136.47" y="-12.57" font-family="Times New Roman,serif" font-size="14.00">Interpret and Use Results</text>
</g>
<!-- E&#45;&gt;H -->
<g id="edge8" class="edge">
<title>E&#45;&gt;H</title>
<path fill="none" stroke="black" d="M136.47,-87.26C136.47,-74.88 136.47,-60.24 136.47,-47.7"/>
<polygon fill="black" stroke="black" points="139.97,-47.98 136.47,-37.98 132.97,-47.98 139.97,-47.98"/>
<text text-anchor="middle" x="178.47" y="-56.45" font-family="Times New Roman,serif" font-size="14.00">Review Output</text>
</g>
<!-- G -->
<g id="node7" class="node">
<title>G</title>
<ellipse fill="none" stroke="black" cx="444.47" cy="-18" rx="118.43" ry="18"/>
<text text-anchor="middle" x="444.47" y="-12.57" font-family="Times New Roman,serif" font-size="14.00">Click &quot;Clear&quot; to Reset Fields</text>
</g>
<!-- F&#45;&gt;G -->
<g id="edge6" class="edge">
<title>F&#45;&gt;G</title>
<path fill="none" stroke="black" d="M392.22,-87.63C398.11,-76.84 405.39,-64.52 412.97,-54 415.24,-50.85 417.75,-47.67 420.33,-44.58"/>
<polygon fill="black" stroke="black" points="422.73,-47.15 426.67,-37.32 417.46,-42.55 422.73,-47.15"/>
<text text-anchor="middle" x="447.22" y="-56.45" font-family="Times New Roman,serif" font-size="14.00">User Action</text>
</g>
<!-- G&#45;&gt;B -->
<g id="edge7" class="edge">
<title>G&#45;&gt;B</title>
<path fill="none" stroke="black" d="M466.14,-36.16C471.52,-41.38 476.79,-47.47 480.47,-54 494.06,-78.11 494.47,-87 494.47,-114.68 494.47,-302.11 494.47,-302.11 494.47,-302.11 494.47,-329.28 472.71,-350.46 450.59,-364.97"/>
<polygon fill="black" stroke="black" points="448.8,-361.97 442.11,-370.19 452.46,-367.93 448.8,-361.97"/>
<text text-anchor="middle" x="545.85" y="-207.94" font-family="Times New Roman,serif" font-size="14.00">Restart Data Entry</text>
</g>
</g>
</svg>
